<?xml version="1.0" encoding="UTF-8"?>
<!DOCTYPE svg PUBLIC "-//W3C//DTD SVG 1.1//EN" "http://www.w3.org/Graphics/SVG/1.1/DTD/svg11.dtd">
<!-- Creator: CorelDRAW 2019 (64-Bit) -->
<svg xmlns="http://www.w3.org/2000/svg" xml:space="preserve" width="729px" height="240px" version="1.1" style="shape-rendering:geometricPrecision; text-rendering:geometricPrecision; image-rendering:optimizeQuality; fill-rule:evenodd; clip-rule:evenodd"
viewBox="0 0 729 240.01"
 xmlns:xlink="http://www.w3.org/1999/xlink"
 xmlns:xodm="http://www.corel.com/coreldraw/odm/2003">
 <defs>
  <style type="text/css">
   <![CDATA[
    .fil0 {fill:#EE4E2C;fill-rule:nonzero}
   ]]>
  </style>
 </defs>
 <g id="Layer_x0020_1">
  <metadata id="CorelCorpID_0Corel-Layer"/>
  <g id="_1702394779776">
   <path class="fil0" d="M195.17 64.24l-48.76 0c-5.48,-48.84 -28.92,-65.1 -47.62,-64.2 -21.02,1.04 -42.27,23.41 -43.12,64.2l-48.82 0c-3.79,0 -6.85,3.06 -6.85,6.85l9.06 137.6c0,3.79 10.16,21.16 26.14,21.05l132.39 0c23.2,-3.61 26.12,-23.03 26.12,-26.82l8.31 -131.83c0,-3.79 -3.06,-6.85 -6.85,-6.85zm-95.81 -52.82l0 0c13.59,-0.63 30.77,12.83 35.55,52.82l-67.82 0c0.77,-33.3 17,-52.04 32.27,-52.82zm13.79 189.19l0 0c-15.82,3.04 -36.15,-2.24 -47.23,-14.13 -5,-5.36 3.06,-13.47 8.08,-8.06 7.45,8.02 20.71,11.76 31.53,11.51 13.79,-0.3 26.07,-12.85 18.24,-26.87 -10.85,-19.4 -37.58,-13.97 -51.32,-29.22 -11.11,-12.3 -5.84,-31.66 7.22,-40.24 13.6,-8.95 37.09,-8.6 48.27,4.22 4.82,5.5 -3.24,13.61 -8.08,8.06 -9.04,-10.36 -30.38,-8.95 -38.53,1.71 -11.59,15.23 5.75,23.42 17.87,27.1 16.67,5.04 35.16,14.26 38.19,33.37 2.42,15.38 -9.49,29.7 -24.24,32.55z"/>
   <path class="fil0" d="M528.9 131.9c-10.69,0 -20.32,4.55 -26.91,11.76l0 -8.36c0,-7.57 -12.13,-7.59 -12.13,0l0 99.01c0,7.59 12.13,7.61 12.13,0l0 -44.09c6.62,7.22 16.22,11.74 26.91,11.74 19.86,0 36,-15.7 36,-35.03 0,-19.31 -16.14,-35.03 -36,-35.03zm0 57.4l0 0c-12.71,0 -23.01,-10.04 -23.01,-22.37 0,-11.1 8.36,-20.37 19.32,-22.09 0.05,0 0.13,-0.02 0.2,-0.02 1.14,-0.17 2.3,-0.26 3.49,-0.26 9.38,0 17.48,5.49 21.04,13.37 0,0.02 0.03,0.07 0.03,0.09 1.24,2.74 1.92,5.75 1.92,8.91 0,12.33 -10.31,22.37 -22.99,22.37zm-89.42 12.67c-19.86,0 -36.03,-15.72 -36.03,-35.03 0,-19.32 16.17,-35.03 36.03,-35.03 19.87,0 36.03,15.71 36.03,35.03 0,19.31 -16.16,35.03 -36.03,35.03zm0 -57.4l0 0c-12.69,0 -23.01,10.03 -23.01,22.37 0,12.33 10.32,22.37 23.01,22.37 12.69,0 23.01,-10.04 23.01,-22.37 0,-12.34 -10.32,-22.37 -23.01,-22.37zm289.52 21.67c-0.29,-16.1 -8.78,-30.64 -26.33,-33.87 -15.13,-2.78 -32.81,4.97 -39.26,18.74 -6.69,14.31 -3.88,33.94 9.31,43.92 14.28,10.77 36.57,7.45 51.21,-0.52 6.81,-3.7 0.7,-13.89 -6.13,-10.19 -9.29,5.07 -21.41,7.55 -31.81,4.18 -7.79,-2.53 -12.15,-9.06 -13.46,-16.36l50.41 0c3.22,0 6.11,-2.71 6.06,-5.9zm-56.03 -5.89l0 0c0.09,-0.45 0.22,-0.87 0.34,-1.3 2.91,-9.59 12.82,-15.15 22.86,-15.41 11.54,-0.31 18.01,7.42 20.03,16.71l-43.23 0zm-24.66 5.99c-0.29,-16.1 -8.78,-30.64 -26.33,-33.87 -15.13,-2.79 -32.81,4.97 -39.26,18.74 -6.69,14.31 -3.87,33.94 9.32,43.92 14.28,10.77 36.56,7.45 51.2,-0.52 6.82,-3.7 0.71,-13.89 -6.13,-10.19 -9.29,5.07 -21.41,7.55 -31.81,4.18 -7.79,-2.53 -12.15,-9.06 -13.46,-16.36l50.41 0c3.22,0 6.11,-2.72 6.06,-5.9zm-56.03 -5.89l0 0c0.09,-0.45 0.22,-0.87 0.34,-1.3 2.91,-9.59 12.82,-15.16 22.86,-15.42 11.54,-0.3 18.02,7.43 20.03,16.72l-43.23 0zm-203.04 -5.46l0 40.93c0,7.71 -12.12,7.71 -12.12,0l0 -40.13c-0.41,-7.94 -7.17,-11.58 -7.39,-11.68 -8.63,-3.75 -24.3,-2.03 -33.63,9.83l0 41.98c0,7.71 -12.13,7.71 -12.13,0l0 -105.13c0,-7.72 12.13,-7.69 12.13,0l0 47.22c14.86,-9.94 33.76,-8.83 42.65,-2.74 0,0 10.68,5.84 10.49,19.72zm-85.15 -59.37c-11.88,-13.13 -36.81,-13.48 -51.28,-4.31 -13.86,8.77 -19.46,28.6 -7.67,41.2 14.61,15.61 42.99,10.04 54.51,29.9 8.33,14.35 -4.72,27.19 -19.36,27.51 -11.49,0.24 -25.58,-3.59 -33.49,-11.8 -5.32,-5.52 -13.88,2.76 -8.57,8.26 11.74,12.18 33.36,17.58 50.14,14.46 15.68,-2.92 28.33,-17.58 25.75,-33.32 -3.2,-19.55 -22.84,-29 -40.55,-34.15 -12.89,-3.76 -31.31,-12.16 -18.98,-27.73 8.66,-10.93 31.32,-12.37 40.93,-1.76 5.14,5.68 13.69,-2.61 8.57,-8.26z"/>
  </g>
 </g>
</svg>
